<svg width="142" height="40" viewBox="0 0 142 40" fill="none" xmlns="http://www.w3.org/2000/svg">
<g clip-path="url(#clip0_1803_71)">
<path d="M46.088 32C45.768 32 45.608 31.8827 45.608 31.648C45.608 31.456 45.7467 31.328 46.024 31.264L46.76 31.136C47.208 31.0507 47.496 30.9333 47.624 30.784C47.7733 30.6347 47.848 30.336 47.848 29.888V11.072C47.848 10.624 47.7733 10.3253 47.624 10.176C47.496 10.0267 47.208 9.90933 46.76 9.824L46.024 9.696C45.7467 9.632 45.608 9.504 45.608 9.312C45.608 9.07733 45.768 8.96 46.088 8.96H51.944C52.264 8.96 52.424 9.088 52.424 9.344C52.424 9.536 52.3067 9.65333 52.072 9.696L51.208 9.824C50.76 9.888 50.4613 10.0053 50.312 10.176C50.184 10.3467 50.12 10.656 50.12 11.104V29.024C50.12 29.792 50.3333 30.3467 50.76 30.688C51.208 31.0293 51.7627 31.2 52.424 31.2C52.9147 31.2 53.416 31.104 53.928 30.912C54.4613 30.6987 54.9413 30.3147 55.368 29.76C55.7947 29.184 56.1147 28.352 56.328 27.264L56.744 25.12C56.808 24.8427 56.968 24.704 57.224 24.704C57.5227 24.704 57.6507 24.8853 57.608 25.248L57.224 31.264C57.1813 31.7547 56.9147 32 56.424 32H46.088ZM61.7068 12.64C61.2588 12.64 60.8748 12.48 60.5548 12.16C60.2561 11.84 60.1068 11.4347 60.1068 10.944C60.1068 10.4533 60.2561 10.0587 60.5548 9.76C60.8748 9.44 61.2588 9.28 61.7068 9.28C62.1548 9.28 62.5281 9.44 62.8268 9.76C63.1254 10.0587 63.2748 10.4533 63.2748 10.944C63.2748 11.4347 63.1254 11.84 62.8268 12.16C62.5281 12.48 62.1548 12.64 61.7068 12.64ZM59.0188 32C58.6988 32 58.5388 31.8827 58.5388 31.648C58.5388 31.456 58.6774 31.328 58.9548 31.264L59.3388 31.2C59.8721 31.1147 60.2134 30.9867 60.3628 30.816C60.5121 30.624 60.5868 30.304 60.5868 29.856V19.104C60.5868 18.72 60.5228 18.464 60.3948 18.336C60.2881 18.1867 60.0854 18.0907 59.7868 18.048L59.1148 17.952C58.8374 17.9307 58.6988 17.8133 58.6988 17.6C58.6988 17.4293 58.8694 17.312 59.2108 17.248C59.8721 17.1413 60.4054 16.9707 60.8108 16.736C61.2161 16.5013 61.6108 16.2133 61.9948 15.872C62.1868 15.68 62.3468 15.584 62.4748 15.584C62.6668 15.584 62.7628 15.712 62.7628 15.968V29.856C62.7628 30.304 62.8268 30.624 62.9548 30.816C63.0828 31.008 63.3281 31.1253 63.6908 31.168L64.4908 31.264C64.7254 31.3067 64.8428 31.424 64.8428 31.616C64.8428 31.872 64.6828 32 64.3628 32H59.0188ZM69.2158 32.288C68.7251 32.288 68.2024 32.224 67.6478 32.096C67.0931 31.9893 66.6451 31.8507 66.3038 31.68C66.1118 31.5733 66.0158 31.392 66.0158 31.136L65.9198 27.552C65.9198 27.1893 66.0584 27.008 66.3358 27.008C66.5704 27.008 66.7304 27.1787 66.8158 27.52C67.1784 29.0347 67.6158 30.0693 68.1278 30.624C68.6611 31.1787 69.3011 31.456 70.0478 31.456C70.6664 31.456 71.1784 31.2213 71.5838 30.752C71.9891 30.2613 72.1918 29.5893 72.1918 28.736C72.1918 27.8827 71.9571 27.1253 71.4878 26.464C71.0184 25.8027 70.2291 25.0773 69.1198 24.288C68.0104 23.5413 67.1998 22.7947 66.6878 22.048C66.1758 21.28 65.9198 20.448 65.9198 19.552C65.9198 18.336 66.3464 17.3547 67.1998 16.608C68.0531 15.8613 69.1838 15.488 70.5918 15.488C71.0184 15.488 71.4344 15.5413 71.8398 15.648C72.2451 15.7333 72.6078 15.8827 72.9278 16.096C73.1198 16.224 73.2158 16.3947 73.2158 16.608L73.2798 20.128C73.2798 20.448 73.1518 20.608 72.8958 20.608C72.7464 20.608 72.6398 20.5653 72.5758 20.48C72.5118 20.3733 72.4584 20.2453 72.4158 20.096C71.9891 18.7093 71.5624 17.7493 71.1358 17.216C70.7091 16.6613 70.1864 16.384 69.5678 16.384C69.0131 16.384 68.5544 16.576 68.1918 16.96C67.8291 17.344 67.6478 17.824 67.6478 18.4C67.6478 19.1467 67.8718 19.7973 68.3198 20.352C68.7678 20.9067 69.5784 21.5893 70.7518 22.4C71.8184 23.168 72.6184 24 73.1518 24.896C73.7064 25.7707 73.9838 26.7307 73.9838 27.776C73.9838 29.1413 73.5464 30.24 72.6718 31.072C71.7971 31.8827 70.6451 32.288 69.2158 32.288ZM79.4115 32.288C78.6648 32.288 78.0462 32.032 77.5555 31.52C77.0862 30.9867 76.8515 30.1227 76.8515 28.928V16.96C76.8515 16.704 76.7235 16.576 76.4675 16.576H75.5395C75.1982 16.576 75.0275 16.448 75.0275 16.192C75.0275 16.0213 75.1235 15.872 75.3155 15.744C76.0195 15.2533 76.5848 14.7307 77.0115 14.176C77.4382 13.6 77.8115 12.8213 78.1315 11.84C78.2808 11.392 78.4622 11.168 78.6755 11.168C78.9102 11.168 79.0275 11.3387 79.0275 11.68V15.232C79.0275 15.5307 79.1768 15.68 79.4755 15.68H81.5555C81.8968 15.68 82.0675 15.8293 82.0675 16.128C82.0675 16.4267 81.8968 16.576 81.5555 16.576H79.4755C79.1768 16.576 79.0275 16.7253 79.0275 17.024V28.96C79.0275 29.4293 79.1022 29.8027 79.2515 30.08C79.4008 30.336 79.6782 30.464 80.0835 30.464C80.5315 30.464 80.8942 30.24 81.1715 29.792C81.4702 29.344 81.6622 28.6187 81.7475 27.616C81.7902 27.3173 81.9288 27.168 82.1635 27.168C82.4195 27.168 82.5475 27.328 82.5475 27.648C82.4835 29.2907 82.1422 30.4747 81.5235 31.2C80.9262 31.9253 80.2222 32.288 79.4115 32.288ZM83.7888 32C83.4688 32 83.3088 31.8827 83.3088 31.648C83.3088 31.456 83.4474 31.328 83.7248 31.264L84.1088 31.2C84.5568 31.1147 84.8448 30.9867 84.9728 30.816C85.1221 30.624 85.1968 30.304 85.1968 29.856V19.104C85.1968 18.72 85.1328 18.464 85.0048 18.336C84.8981 18.1867 84.6954 18.0907 84.3968 18.048L83.7248 17.952C83.4474 17.9307 83.3088 17.8133 83.3088 17.6C83.3088 17.4293 83.4794 17.312 83.8208 17.248C84.4821 17.1413 84.9834 16.9707 85.3248 16.736C85.6874 16.5013 86.0608 16.2133 86.4448 15.872C86.6368 15.68 86.7968 15.584 86.9248 15.584C87.1168 15.584 87.2128 15.712 87.2128 15.968V17.408C87.2128 17.5573 87.2768 17.6747 87.4048 17.76C87.5328 17.824 87.6714 17.7813 87.8208 17.632C88.6954 16.8 89.4528 16.2347 90.0928 15.936C90.7541 15.6373 91.4154 15.488 92.0768 15.488C92.6954 15.488 93.2394 15.6587 93.7088 16C94.1994 16.32 94.5621 16.8107 94.7968 17.472C94.8608 17.6427 94.9674 17.7493 95.1168 17.792C95.2874 17.8133 95.4474 17.7493 95.5968 17.6C96.4714 16.7893 97.2288 16.2347 97.8688 15.936C98.5088 15.6373 99.1594 15.488 99.8208 15.488C100.717 15.488 101.442 15.8293 101.997 16.512C102.573 17.1733 102.861 18.1547 102.861 19.456V29.856C102.861 30.304 102.925 30.624 103.053 30.816C103.202 30.9867 103.501 31.104 103.949 31.168L104.653 31.264C104.887 31.3067 105.005 31.4347 105.005 31.648C105.005 31.8827 104.877 32 104.621 32H99.1488C98.8501 32 98.7008 31.8827 98.7008 31.648C98.7008 31.4347 98.8181 31.3067 99.0528 31.264L99.5008 31.2C99.9914 31.136 100.311 31.008 100.461 30.816C100.61 30.624 100.685 30.304 100.685 29.856V19.808C100.685 18.7627 100.493 18.0267 100.109 17.6C99.7461 17.1733 99.2448 16.96 98.6048 16.96C97.9648 16.96 97.3781 17.1627 96.8448 17.568C96.3328 17.952 95.9168 18.4747 95.5968 19.136C95.2768 19.776 95.1168 20.4907 95.1168 21.28V29.856C95.1168 30.304 95.1914 30.624 95.3408 30.816C95.4901 30.9867 95.7994 31.104 96.2688 31.168L96.9728 31.264C97.2074 31.3067 97.3248 31.4347 97.3248 31.648C97.3248 31.8827 97.1968 32 96.9408 32H91.5008C91.2021 32 91.0528 31.8827 91.0528 31.648C91.0528 31.4347 91.1701 31.3067 91.4048 31.264L91.8528 31.2C92.3008 31.136 92.5888 31.008 92.7168 30.816C92.8661 30.624 92.9408 30.304 92.9408 29.856V19.808C92.9408 18.7627 92.7488 18.0267 92.3648 17.6C92.0021 17.1733 91.5008 16.96 90.8608 16.96C90.2208 16.96 89.6341 17.1627 89.1008 17.568C88.5888 17.952 88.1728 18.4747 87.8528 19.136C87.5328 19.776 87.3728 20.4907 87.3728 21.28V29.856C87.3728 30.304 87.4368 30.624 87.5648 30.816C87.7141 31.008 88.0128 31.1253 88.4608 31.168L89.3248 31.264C89.5594 31.3067 89.6768 31.424 89.6768 31.616C89.6768 31.872 89.5168 32 89.1968 32H83.7888ZM109.04 32.288C108.144 32.288 107.408 32.0107 106.832 31.456C106.256 30.88 105.968 30.1227 105.968 29.184C105.968 28.2667 106.256 27.4027 106.832 26.592C107.408 25.76 108.197 25.0133 109.2 24.352C110.203 23.6907 111.344 23.1573 112.624 22.752C112.901 22.6667 113.04 22.4853 113.04 22.208V19.296C113.04 18.272 112.88 17.5467 112.56 17.12C112.24 16.672 111.803 16.448 111.248 16.448C110.715 16.448 110.224 16.6933 109.776 17.184C109.349 17.6533 109.04 18.4533 108.848 19.584C108.741 20.2667 108.507 20.768 108.144 21.088C107.803 21.3867 107.451 21.536 107.088 21.536C106.491 21.536 106.192 21.2373 106.192 20.64C106.192 20.0213 106.363 19.4133 106.704 18.816C107.067 18.1973 107.536 17.6427 108.112 17.152C108.688 16.64 109.317 16.2347 110 15.936C110.683 15.6373 111.365 15.488 112.048 15.488C114.16 15.488 115.216 16.7147 115.216 19.168V28.96C115.216 29.856 115.44 30.304 115.888 30.304C116.165 30.304 116.421 30.1227 116.656 29.76C116.891 29.376 117.008 28.736 117.008 27.84C117.008 27.4987 117.147 27.328 117.424 27.328C117.68 27.328 117.808 27.5093 117.808 27.872C117.808 29.4293 117.531 30.56 116.976 31.264C116.443 31.9467 115.835 32.288 115.152 32.288C114.64 32.288 114.235 32.0853 113.936 31.68C113.637 31.2533 113.435 30.752 113.328 30.176C113.307 29.9627 113.211 29.856 113.04 29.856C112.891 29.8347 112.741 29.9307 112.592 30.144C112.08 30.848 111.557 31.3813 111.024 31.744C110.491 32.1067 109.829 32.288 109.04 32.288ZM109.904 30.816C110.459 30.816 110.971 30.624 111.44 30.24C111.909 29.8347 112.293 29.3013 112.592 28.64C112.891 27.9787 113.04 27.232 113.04 26.4V24.064C113.04 23.6587 112.816 23.5413 112.368 23.712C111.067 24.1813 110.053 24.832 109.328 25.664C108.624 26.4747 108.272 27.456 108.272 28.608C108.272 30.08 108.816 30.816 109.904 30.816ZM122.338 32.288C121.591 32.288 120.972 32.032 120.482 31.52C120.012 30.9867 119.778 30.1227 119.778 28.928V16.96C119.778 16.704 119.65 16.576 119.394 16.576H118.466C118.124 16.576 117.954 16.448 117.954 16.192C117.954 16.0213 118.05 15.872 118.242 15.744C118.946 15.2533 119.511 14.7307 119.938 14.176C120.364 13.6 120.738 12.8213 121.058 11.84C121.207 11.392 121.388 11.168 121.602 11.168C121.836 11.168 121.954 11.3387 121.954 11.68V15.232C121.954 15.5307 122.103 15.68 122.402 15.68H124.482C124.823 15.68 124.994 15.8293 124.994 16.128C124.994 16.4267 124.823 16.576 124.482 16.576H122.402C122.103 16.576 121.954 16.7253 121.954 17.024V28.96C121.954 29.4293 122.028 29.8027 122.178 30.08C122.327 30.336 122.604 30.464 123.01 30.464C123.458 30.464 123.82 30.24 124.098 29.792C124.396 29.344 124.588 28.6187 124.674 27.616C124.716 27.3173 124.855 27.168 125.09 27.168C125.346 27.168 125.474 27.328 125.474 27.648C125.41 29.2907 125.068 30.4747 124.45 31.2C123.852 31.9253 123.148 32.288 122.338 32.288ZM131.899 32.288C130.875 32.288 129.958 31.9467 129.147 31.264C128.336 30.5813 127.686 29.6213 127.195 28.384C126.726 27.1253 126.491 25.6747 126.491 24.032C126.491 22.3467 126.736 20.864 127.227 19.584C127.718 18.304 128.39 17.3013 129.243 16.576C130.096 15.8507 131.046 15.488 132.091 15.488C133.35 15.488 134.363 16.0107 135.131 17.056C135.92 18.08 136.315 19.7547 136.315 22.08C136.315 22.784 136.048 23.136 135.515 23.136H129.435C129.008 23.136 128.795 23.3813 128.795 23.872C128.795 26.1333 129.126 27.8293 129.787 28.96C130.448 30.0907 131.291 30.656 132.315 30.656C133.126 30.656 133.787 30.368 134.299 29.792C134.811 29.216 135.227 28.2453 135.547 26.88C135.611 26.6453 135.75 26.528 135.963 26.528C136.219 26.528 136.315 26.7413 136.251 27.168C135.91 29.0667 135.366 30.4 134.619 31.168C133.872 31.9147 132.966 32.288 131.899 32.288ZM129.339 22.336H132.571C133.595 22.336 134.107 21.8027 134.107 20.736C134.107 19.3493 133.936 18.2613 133.595 17.472C133.254 16.6827 132.742 16.288 132.059 16.288C131.227 16.288 130.523 16.768 129.947 17.728C129.392 18.688 129.03 20.0533 128.859 21.824C128.816 22.1653 128.976 22.336 129.339 22.336Z" fill="black"/>
<g clip-path="url(#clip1_1803_71)">
<path d="M19 19C19.5523 19 20 19.4477 20 20C20 20.5523 19.5523 21 19 21C18.4477 21 18 20.5523 18 20C18 19.4477 18.4477 19 19 19Z" fill="#010002"/>
<path d="M19 4C10.1635 4 3 11.1635 3 20C3 28.8365 10.1635 36 19 36C27.8365 36 35 28.8365 35 20C35 11.1635 27.8365 4 19 4ZM12.8994 7.97933C14.7309 7.04825 16.8042 6.52315 19 6.52315C19.129 6.52315 19.2568 6.52489 19.3846 6.52836C19.5968 6.53414 19.7425 7.06155 19.7107 7.69943L19.5477 10.9825C19.5159 11.6203 19.3805 12.131 19.2452 12.1269C19.1637 12.1246 19.0821 12.1235 19 12.1235C17.8451 12.1235 16.7481 12.3721 15.7598 12.8186C15.1774 13.0817 14.4805 12.925 14.1555 12.375L12.4808 9.54307C12.1557 8.9931 12.3298 8.26906 12.8994 7.97933ZM12.2448 14.0018L9.77081 11.8378C9.28966 11.4174 9.23993 10.6846 9.70199 10.244C9.71298 10.2336 9.72339 10.2237 9.73496 10.2133C10.1988 9.77381 10.9257 9.86345 11.3178 10.3672L13.3384 12.9603C13.7311 13.464 13.8224 14.0527 13.5645 14.2985C13.306 14.5454 12.726 14.4222 12.2448 14.0018ZM13.3384 20C13.3384 16.8731 15.8731 14.3384 19 14.3384C22.1269 14.3384 24.6616 16.8731 24.6616 20C24.6616 23.1269 22.1269 25.6616 19 25.6616C15.8731 25.6616 13.3384 23.1269 13.3384 20ZM25.074 32.034C23.2488 32.957 21.1848 33.4769 19 33.4769C18.8566 33.4769 18.7137 33.4745 18.5715 33.4705C18.3349 33.463 18.1713 32.9332 18.206 32.2954L18.3853 29.0129C18.4205 28.375 18.5715 27.8673 18.7241 27.8725C18.8155 27.8754 18.9075 27.8771 19 27.8771C20.0606 27.8771 21.0715 27.6678 21.995 27.2884C22.5861 27.0455 23.3107 27.2051 23.6588 27.7406L25.4522 30.4992C25.8003 31.0341 25.6442 31.7454 25.074 32.034ZM28.2251 29.8248C27.7822 30.2412 27.0656 30.1435 26.662 29.6485L24.5859 27.0999C24.1822 26.6048 24.0793 26.0312 24.3343 25.7958C24.5899 25.5604 25.1688 25.6923 25.6494 26.1133L28.1245 28.2785C28.6057 28.6989 28.6687 29.4085 28.2251 29.8248Z" fill="#010002"/>
</g>
</g>
<defs>
<clipPath id="clip0_1803_71">
<rect width="142" height="40" fill="white"/>
</clipPath>
<clipPath id="clip1_1803_71">
<rect width="32" height="32" fill="white" transform="translate(3 4)"/>
</clipPath>
</defs>
</svg>
